<?xml version="1.0" encoding="utf-8"?>
<!-- Generator: Adobe Illustrator 16.0.0, SVG Export Plug-In . SVG Version: 6.00 Build 0)  -->
<!DOCTYPE svg PUBLIC "-//W3C//DTD SVG 1.1//EN" "http://www.w3.org/Graphics/SVG/1.1/DTD/svg11.dtd">
<svg version="1.1" id="Layer_1" xmlns="http://www.w3.org/2000/svg" xmlns:xlink="http://www.w3.org/1999/xlink" x="0px" y="0px"
	 width="368px" height="78px" viewBox="0 0 368 78" enable-background="new 0 0 368 78" xml:space="preserve">
<g>
	<path fill="#FCFCFC" d="M27.708,20.773v46.582h-8.191V20.773H7.037v-7.699h33.117v7.699H27.708z"/>
	<path fill="#FCFCFC" d="M77.419,20.773H55.658v13.043h21.129v7.699H55.658v18.141h21.762v7.699H47.466V13.074h29.953V20.773z"/>
	<path fill="#FCFCFC" d="M120.064,54.172H96.826l-6.047,13.184h-8.824l26.859-57.691l25.91,57.691h-8.965L120.064,54.172z
		 M116.724,46.473l-8.051-18.457l-8.438,18.457H116.724z"/>
	<path fill="#FCFCFC" d="M179.091,15.974v9.686c-4.734-3.96-9.633-5.941-14.695-5.941c-5.578,0-10.278,2.004-14.098,6.012
		c-3.844,3.985-5.766,8.859-5.766,14.625c0,5.695,1.921,10.5,5.766,14.414c3.844,3.915,8.555,5.871,14.133,5.871
		c2.883,0,5.332-0.469,7.348-1.406c1.125-0.469,2.291-1.102,3.498-1.898c1.207-0.796,2.479-1.758,3.814-2.883v9.896
		c-4.688,2.661-9.61,3.991-14.766,3.991c-7.758,0-14.379-2.707-19.863-8.121c-5.461-5.461-8.191-12.046-8.191-19.758
		c0-6.914,2.285-13.078,6.855-18.492c5.625-6.632,12.902-9.949,21.832-9.949C169.833,12.02,174.544,13.338,179.091,15.974z"/>
	<path fill="#FCFCFC" d="M199.13,34.309h23.414V13.074h8.191v54.281h-8.191V42.008H199.13v25.348h-8.191V13.074h8.191V34.309z"/>
	<path fill="#FCFCFC" d="M273.697,20.773h-21.762v13.043h21.129v7.699h-21.129v18.141h21.762v7.699h-29.953V13.074h29.953V20.773z"
		/>
	<path fill="#FCFCFC" d="M302.841,44.223l16.805,23.133h-10.02l-15.504-22.219h-1.477v22.219h-8.191V13.074h9.598
		c7.172,0,12.352,1.348,15.539,4.043c3.516,3,5.273,6.961,5.273,11.883c0,3.844-1.102,7.149-3.305,9.914
		C309.357,41.68,306.45,43.449,302.841,44.223z M292.646,38h2.602c7.757,0,11.637-2.965,11.637-8.895
		c0-5.555-3.774-8.332-11.32-8.332h-2.918V38z"/>
	<path fill="#FCFCFC" d="M336.38,43.906l-17.719-30.832h9.422l12.41,21.691l12.445-21.691h9.422l-17.789,30.832v23.449h-8.191
		V43.906z"/>
</g>
</svg>
